<svg width="80" height="80" viewBox="0 0 80 80" fill="none" xmlns="http://www.w3.org/2000/svg">
  <!-- Starburst Icon Only -->
  <g id="starburst">
    <!-- Center circle -->
    <circle cx="40" cy="40" r="10" fill="#ff6b35"/>

    <!-- 8 rays emanating from center -->
    <!-- Top ray -->
    <polygon points="40,0 37,30 43,30" fill="url(#orangeGradient)"/>
    <!-- Top-right ray -->
    <polygon points="68.28,11.72 45.66,28.28 48.28,33.72" fill="url(#orangeGradient)"/>
    <!-- Right ray -->
    <polygon points="80,40 50,37 50,43" fill="url(#orangeGradient)"/>
    <!-- Bottom-right ray -->
    <polygon points="68.28,68.28 48.28,46.28 45.66,51.72" fill="url(#orangeGradient)"/>
    <!-- Bottom ray -->
    <polygon points="40,80 37,50 43,50" fill="url(#orangeGradient)"/>
    <!-- Bottom-left ray -->
    <polygon points="11.72,68.28 34.34,51.72 31.72,46.28" fill="url(#orangeGradient)"/>
    <!-- Left ray -->
    <polygon points="0,40 30,37 30,43" fill="url(#orangeGradient)"/>
    <!-- Top-left ray -->
    <polygon points="11.72,11.72 31.72,33.72 34.34,28.28" fill="url(#orangeGradient)"/>

    <!-- Glow effect -->
    <circle cx="40" cy="40" r="15" fill="none" stroke="#ff6b35" stroke-width="0.5" opacity="0.3"/>
    <circle cx="40" cy="40" r="20" fill="none" stroke="#ff6b35" stroke-width="0.3" opacity="0.2"/>
    <circle cx="40" cy="40" r="25" fill="none" stroke="#ff6b35" stroke-width="0.2" opacity="0.1"/>
  </g>

  <!-- Gradient definition -->
  <defs>
    <linearGradient id="orangeGradient" x1="0%" y1="0%" x2="100%" y2="0%">
      <stop offset="0%" style="stop-color:#ff6b35;stop-opacity:1" />
      <stop offset="100%" style="stop-color:#ffbe0b;stop-opacity:1" />
    </linearGradient>
  </defs>
</svg>
